<?xml version="1.0" standalone="no"?>
<!DOCTYPE svg PUBLIC "-//W3C//DTD SVG 20010904//EN"
 "http://www.w3.org/TR/2001/REC-SVG-20010904/DTD/svg10.dtd">
<svg version="1.0" xmlns="http://www.w3.org/2000/svg"
 width="616.000000pt" height="616.000000pt" viewBox="0 0 616.000000 616.000000"
 preserveAspectRatio="xMidYMid meet">
<metadata>
Created by potrace 1.11, written by Peter Selinger 2001-2013
</metadata>
<g transform="translate(0.000000,616.000000) scale(0.100000,-0.100000)"
fill="#000000" stroke="none">
<path d="M1945 5201 c-3 -3 -12 -6 -19 -7 -53 -8 -141 -91 -838 -787 -812
-812 -800 -799 -793 -897 1 -25 13 -66 25 -90 34 -66 717 -745 776 -771 87
-39 173 -22 253 50 35 32 51 38 51 22 0 -12 76 -140 131 -220 24 -35 49 -71
54 -80 29 -47 285 -369 367 -462 192 -217 596 -626 668 -677 72 -51 140 -71
228 -69 144 5 262 87 302 213 17 55 24 59 88 59 31 1 80 7 107 15 67 19 143
94 171 170 l21 55 85 6 c124 8 195 51 246 148 6 13 12 29 12 36 0 7 8 22 17
34 15 18 31 22 89 25 83 5 145 31 199 84 60 59 78 111 79 225 l1 98 35 30 c34
28 225 158 342 232 37 23 63 34 77 30 12 -3 21 -8 21 -12 0 -12 68 -32 107
-32 49 0 74 6 112 25 39 20 721 701 757 756 38 57 40 137 5 204 -18 35 -219
242 -760 783 -405 405 -751 747 -768 760 -34 26 -87 44 -138 45 -77 3 -115
-28 -478 -390 -192 -191 -361 -367 -375 -392 -22 -37 -27 -57 -27 -110 1 -85
16 -111 133 -232 82 -85 94 -104 60 -99 -4 0 -26 -6 -49 -14 -124 -44 -241
-35 -459 36 -52 17 -108 36 -124 43 l-28 12 60 62 c73 73 92 107 99 177 10 96
-3 113 -391 502 -193 194 -367 361 -386 371 -46 26 -133 46 -145 33z m648
-1397 l82 -26 -111 -112 c-112 -113 -373 -426 -431 -519 -64 -100 -33 -203
103 -344 101 -104 220 -141 347 -108 92 24 132 47 398 236 12 8 61 44 111 81
65 47 97 64 109 59 16 -5 96 -76 229 -201 21 -19 95 -89 166 -155 251 -235
364 -353 384 -399 24 -54 18 -80 -18 -71 -98 24 -202 11 -249 -33 -36 -34 -51
-63 -73 -143 -16 -61 -19 -64 -46 -62 -118 9 -171 6 -208 -12 -49 -24 -91 -81
-106 -148 -24 -98 -22 -96 -76 -82 -104 26 -209 -7 -259 -83 -13 -20 -31 -66
-39 -102 -23 -98 -65 -121 -132 -72 -29 22 -408 403 -498 502 -101 111 -292
340 -384 461 -85 112 -299 420 -308 443 -6 15 891 916 912 916 8 0 51 -12 97
-26z m1080 -119 c40 -19 817 -781 817 -801 0 -7 -47 -42 -105 -79 -58 -36
-143 -95 -190 -131 -47 -35 -87 -64 -89 -64 -2 0 -25 21 -52 46 -150 143 -207
196 -279 259 -69 62 -121 109 -201 181 -13 12 -58 52 -100 90 -42 38 -90 81
-106 96 -41 36 -73 46 -144 43 -139 -7 -281 -70 -447 -200 -124 -97 -217 -155
-263 -162 -35 -6 -88 17 -103 45 -10 19 6 67 30 92 8 8 32 37 54 65 156 195
335 353 495 437 147 77 263 105 445 106 70 0 129 2 131 5 8 7 65 -8 107 -28z"/>
</g>
</svg>
